<svg xmlns="http://www.w3.org/2000/svg" xmlns:xlink="http://www.w3.org/1999/xlink" width="500" zoomAndPan="magnify" viewBox="0 0 375 374.999991" height="500" preserveAspectRatio="xMidYMid meet" version="1.0"><defs><g/><clipPath id="d0fb8db40c"><rect x="0" width="170" y="0" height="305"/></clipPath><clipPath id="497fbffbd3"><rect x="0" width="233" y="0" height="305"/></clipPath></defs><rect x="-37.5" width="450" fill="#ffffff" y="-37.499999" height="449.999989" fill-opacity="1"/><rect x="-37.5" width="450" fill="#ffffff" y="-37.499999" height="449.999989" fill-opacity="1"/><g transform="matrix(1, 0, 0, 1, 61, 26)"><g clip-path="url(#d0fb8db40c)"><g fill="#004aad" fill-opacity="1"><g transform="translate(0.840196, 242.900007)"><g><path d="M 85.90625 3 C 70.488281 3 56.171875 0.847656 42.953125 -3.453125 C 29.734375 -7.753906 19.320312 -12.710938 11.71875 -18.328125 L 10.515625 -63.375 L 14.421875 -63.984375 C 18.617188 -52.566406 24.375 -42.300781 31.6875 -33.1875 C 39 -24.070312 47.859375 -16.8125 58.265625 -11.40625 C 68.679688 -6 80.5 -3.296875 93.71875 -3.296875 C 100.71875 -3.296875 107.222656 -4.75 113.234375 -7.65625 C 119.242188 -10.5625 124.148438 -14.816406 127.953125 -20.421875 C 131.753906 -26.023438 133.65625 -32.9375 133.65625 -41.15625 C 133.65625 -48.5625 131.550781 -55.015625 127.34375 -60.515625 C 123.144531 -66.023438 117.789062 -70.832031 111.28125 -74.9375 C 104.769531 -79.039062 97.910156 -82.644531 90.703125 -85.75 C 83.492188 -88.851562 76.890625 -91.609375 70.890625 -94.015625 C 60.671875 -98.421875 51.253906 -102.828125 42.640625 -107.234375 C 34.035156 -111.640625 27.128906 -117.296875 21.921875 -124.203125 C 16.710938 -131.109375 14.109375 -140.367188 14.109375 -151.984375 C 14.109375 -170.609375 21.066406 -185.328125 34.984375 -196.140625 C 48.898438 -206.953125 67.675781 -212.359375 91.3125 -212.359375 C 102.519531 -212.359375 112.976562 -211.253906 122.6875 -209.046875 C 132.40625 -206.847656 141.171875 -203.742188 148.984375 -199.734375 L 150.1875 -160.6875 L 146.875 -159.484375 C 140.664062 -174.910156 131.601562 -186.726562 119.6875 -194.9375 C 107.78125 -203.144531 94.515625 -207.25 79.890625 -207.25 C 67.878906 -207.25 57.71875 -203.894531 49.40625 -197.1875 C 41.09375 -190.476562 36.9375 -181.21875 36.9375 -169.40625 C 36.9375 -162.789062 38.585938 -157.03125 41.890625 -152.125 C 45.203125 -147.21875 49.609375 -142.960938 55.109375 -139.359375 C 60.617188 -135.753906 66.523438 -132.597656 72.828125 -129.890625 C 79.140625 -127.191406 85.300781 -124.644531 91.3125 -122.25 C 98.914062 -119.238281 106.671875 -116.03125 114.578125 -112.625 C 122.492188 -109.226562 129.753906 -105.226562 136.359375 -100.625 C 142.972656 -96.019531 148.28125 -90.507812 152.28125 -84.09375 C 156.289062 -77.6875 158.296875 -69.976562 158.296875 -60.96875 C 158.296875 -50.757812 156.191406 -41.648438 151.984375 -33.640625 C 147.773438 -25.628906 142.164062 -18.921875 135.15625 -13.515625 C 128.15625 -8.109375 120.347656 -4.003906 111.734375 -1.203125 C 103.117188 1.597656 94.507812 3 85.90625 3 Z M 85.90625 3 "/></g></g></g></g></g><g transform="matrix(1, 0, 0, 1, 109, 26)"><g clip-path="url(#497fbffbd3)"><g fill="#004aad" fill-opacity="1"><g transform="translate(0.712605, 242.777356)"><g><path d="M 132.3125 3 C 108.457031 3 87.804688 -1.054688 70.359375 -9.171875 C 52.921875 -17.285156 39.539062 -29.113281 30.21875 -44.65625 C 20.894531 -60.195312 16.234375 -79.191406 16.234375 -101.640625 C 16.234375 -116.878906 19.085938 -131.164062 24.796875 -144.5 C 30.515625 -157.832031 38.738281 -169.609375 49.46875 -179.828125 C 60.195312 -190.054688 73.023438 -198.078125 87.953125 -203.890625 C 102.890625 -209.703125 119.582031 -212.609375 138.03125 -212.609375 C 145.445312 -212.609375 153.515625 -212.101562 162.234375 -211.09375 C 170.953125 -210.09375 179.269531 -208.539062 187.1875 -206.4375 C 195.113281 -204.332031 201.679688 -201.476562 206.890625 -197.875 L 208.09375 -158.171875 L 204.484375 -157.28125 C 200.472656 -167.695312 194.554688 -176.5625 186.734375 -183.875 C 178.921875 -191.195312 170.148438 -196.863281 160.421875 -200.875 C 150.703125 -204.882812 140.632812 -206.890625 130.21875 -206.890625 C 114.175781 -206.890625 99.988281 -203.378906 87.65625 -196.359375 C 75.332031 -189.347656 65.660156 -179.078125 58.640625 -165.546875 C 51.617188 -152.015625 48.109375 -135.222656 48.109375 -115.171875 C 48.109375 -100.742188 50.210938 -86.8125 54.421875 -73.375 C 58.640625 -59.945312 64.707031 -47.96875 72.625 -37.4375 C 80.539062 -26.914062 90.257812 -18.597656 101.78125 -12.484375 C 113.3125 -6.367188 126.394531 -3.3125 141.03125 -3.3125 C 157.875 -3.3125 172.007812 -8.019531 183.4375 -17.4375 C 194.863281 -26.863281 203.285156 -39.394531 208.703125 -55.03125 L 212.609375 -54.4375 L 207.796875 -11.421875 C 199.773438 -7.816406 189.800781 -4.507812 177.875 -1.5 C 165.945312 1.5 150.757812 3 132.3125 3 Z M 132.3125 3 "/></g></g></g></g></g></svg>
